<svg xmlns="http://www.w3.org/2000/svg" width="800" height="500" viewBox="0 0 800 500">
  <defs>
    <linearGradient id="bg" x1="0" y1="0" x2="0" y2="1">
      <stop offset="0%" stop-color="#1a1a2e"/>
      <stop offset="100%" stop-color="#16213e"/>
    </linearGradient>
    <linearGradient id="card" x1="0" y1="0" x2="0" y2="1">
      <stop offset="0%" stop-color="#2a2a4a"/>
      <stop offset="100%" stop-color="#222244"/>
    </linearGradient>
  </defs>

  <!-- Background -->
  <rect width="800" height="500" rx="12" fill="url(#bg)"/>

  <!-- Top bar -->
  <rect width="800" height="44" rx="12" fill="#252545"/>
  <rect y="32" width="800" height="12" fill="#252545"/>
  <circle cx="20" cy="22" r="6" fill="#ff5f57"/>
  <circle cx="40" cy="22" r="6" fill="#febc2e"/>
  <circle cx="60" cy="22" r="6" fill="#28c840"/>
  <text x="400" y="27" font-family="'Inter', system-ui, sans-serif" font-size="13" fill="rgba(255,255,255,0.5)" text-anchor="middle">OpenClaw  ·  vibe-flow  ·  8 agents</text>

  <!-- Sidebar -->
  <rect x="0" y="44" width="180" height="456" fill="#1e1e3a"/>
  <text x="20" y="72" font-family="'Inter', system-ui, sans-serif" font-size="11" font-weight="600" fill="#7c7fff" letter-spacing="1">AGENTS</text>

  <!-- Agent list -->
  <g font-family="'SF Mono', 'Cascadia Code', monospace" font-size="11">
    <circle cx="28" cy="94" r="4" fill="#22c55e"/>
    <text x="40" y="98" fill="#e0e0e0">pm</text>
    <text x="110" y="98" fill="#555" font-size="9">gpt-5.2</text>

    <circle cx="28" cy="118" r="4" fill="#22c55e"/>
    <text x="40" y="122" fill="#e0e0e0">tech-lead</text>
    <text x="110" y="122" fill="#555" font-size="9">opus-4-6</text>

    <circle cx="28" cy="142" r="4" fill="#22c55e"/>
    <text x="40" y="146" fill="#e0e0e0">po</text>
    <text x="110" y="146" fill="#555" font-size="9">gpt-4.1</text>

    <circle cx="28" cy="166" r="4" fill="#22c55e"/>
    <text x="40" y="170" fill="#e0e0e0">designer</text>
    <text x="110" y="170" fill="#555" font-size="9">gpt-4o</text>

    <circle cx="28" cy="190" r="4" fill="#3b82f6"/>
    <text x="40" y="194" fill="#e0e0e0">back-1</text>
    <text x="110" y="194" fill="#555" font-size="9">sonnet-4-6</text>

    <circle cx="28" cy="214" r="4" fill="#3b82f6"/>
    <text x="40" y="218" fill="#e0e0e0">front-1</text>
    <text x="110" y="218" fill="#555" font-size="9">sonnet-4-6</text>

    <circle cx="28" cy="238" r="4" fill="#f59e0b"/>
    <text x="40" y="242" fill="#e0e0e0">qa</text>
    <text x="110" y="242" fill="#555" font-size="9">sonnet-4-6</text>

    <circle cx="28" cy="262" r="4" fill="#a855f7"/>
    <text x="40" y="266" fill="#e0e0e0">devops</text>
    <text x="110" y="266" fill="#555" font-size="9">sonnet-4-6</text>
  </g>

  <!-- Sidebar nav -->
  <line x1="10" y1="290" x2="170" y2="290" stroke="#333" stroke-width="1"/>
  <g font-family="'Inter', system-ui, sans-serif" font-size="11" fill="#888">
    <text x="20" y="312">Tasks</text>
    <text x="20" y="336">Pipeline</text>
    <text x="20" y="360">Quality</text>
    <text x="20" y="384">Settings</text>
  </g>

  <!-- Main content area: Pipeline overview -->
  <text x="200" y="76" font-family="'Inter', system-ui, sans-serif" font-size="16" font-weight="600" fill="#e0e0e0">Pipeline Overview</text>
  <text x="200" y="96" font-family="'Inter', system-ui, sans-serif" font-size="11" fill="#888">Task VF-042  ·  Add user dashboard widget</text>

  <!-- Pipeline stages -->
  <g font-family="'SF Mono', monospace" font-size="10">
    <!-- Stage boxes -->
    <rect x="200" y="112" width="68" height="28" rx="4" fill="#22c55e" opacity="0.2"/>
    <text x="234" y="130" fill="#22c55e" text-anchor="middle">Triage</text>

    <rect x="278" y="112" width="68" height="28" rx="4" fill="#22c55e" opacity="0.2"/>
    <text x="312" y="130" fill="#22c55e" text-anchor="middle">Design</text>

    <rect x="356" y="112" width="68" height="28" rx="4" fill="#22c55e" opacity="0.2"/>
    <text x="390" y="130" fill="#22c55e" text-anchor="middle">Impl</text>

    <rect x="434" y="112" width="68" height="28" rx="4" fill="#3b82f6" opacity="0.3"/>
    <text x="468" y="130" fill="#3b82f6" text-anchor="middle" font-weight="700">Review</text>

    <rect x="512" y="112" width="68" height="28" rx="4" fill="#444" opacity="0.3"/>
    <text x="546" y="130" fill="#666" text-anchor="middle">QA</text>

    <rect x="590" y="112" width="68" height="28" rx="4" fill="#444" opacity="0.3"/>
    <text x="624" y="130" fill="#666" text-anchor="middle">Gate</text>

    <rect x="668" y="112" width="68" height="28" rx="4" fill="#444" opacity="0.3"/>
    <text x="702" y="130" fill="#666" text-anchor="middle">Ship</text>

    <!-- Connector arrows -->
    <line x1="268" y1="126" x2="278" y2="126" stroke="#555" stroke-width="1"/>
    <line x1="346" y1="126" x2="356" y2="126" stroke="#555" stroke-width="1"/>
    <line x1="424" y1="126" x2="434" y2="126" stroke="#555" stroke-width="1"/>
    <line x1="502" y1="126" x2="512" y2="126" stroke="#555" stroke-width="1"/>
    <line x1="580" y1="126" x2="590" y2="126" stroke="#555" stroke-width="1"/>
    <line x1="658" y1="126" x2="668" y2="126" stroke="#555" stroke-width="1"/>
  </g>

  <!-- Cards row 1 -->
  <rect x="200" y="160" width="275" height="140" rx="8" fill="url(#card)" stroke="#333" stroke-width="1"/>
  <text x="216" y="184" font-family="'Inter', sans-serif" font-size="12" font-weight="600" fill="#c7c8ff">Model Routing</text>
  <g font-family="'SF Mono', monospace" font-size="10">
    <text x="216" y="208" fill="#a0a0a0">anthropic/claude-opus-4-6</text><text x="430" y="208" fill="#22c55e" text-anchor="end">tech-lead</text>
    <text x="216" y="226" fill="#a0a0a0">anthropic/claude-sonnet-4-6</text><text x="430" y="226" fill="#3b82f6" text-anchor="end">back-1, qa</text>
    <text x="216" y="244" fill="#a0a0a0">openai-codex/gpt-5.2</text><text x="430" y="244" fill="#f59e0b" text-anchor="end">pm</text>
    <text x="216" y="262" fill="#a0a0a0">github-copilot/gpt-4.1</text><text x="430" y="262" fill="#a855f7" text-anchor="end">po</text>
    <text x="216" y="280" fill="#a0a0a0">github-copilot/gpt-4o</text><text x="430" y="280" fill="#22c55e" text-anchor="end">designer</text>
  </g>

  <rect x="490" y="160" width="275" height="140" rx="8" fill="url(#card)" stroke="#333" stroke-width="1"/>
  <text x="506" y="184" font-family="'Inter', sans-serif" font-size="12" font-weight="600" fill="#c7c8ff">Quality Metrics</text>
  <g font-family="'SF Mono', monospace" font-size="10">
    <text x="506" y="208" fill="#22c55e">coverage</text><text x="620" y="208" fill="#a0a0a0">84.2%</text><text x="720" y="208" fill="#555">/ 70%</text>
    <text x="506" y="228" fill="#22c55e">lint-errors</text><text x="620" y="228" fill="#a0a0a0">0</text><text x="720" y="228" fill="#555">/ 0</text>
    <text x="506" y="248" fill="#22c55e">complexity</text><text x="620" y="248" fill="#a0a0a0">4.2</text><text x="720" y="248" fill="#555">/ 5.0</text>
    <text x="506" y="268" fill="#22c55e">tests</text><text x="620" y="268" fill="#a0a0a0">1193 pass</text>
    <text x="506" y="288" fill="#22c55e">ts-errors</text><text x="620" y="288" fill="#a0a0a0">0</text><text x="720" y="288" fill="#555">/ 0</text>
  </g>

  <!-- Cards row 2 -->
  <rect x="200" y="316" width="275" height="120" rx="8" fill="url(#card)" stroke="#333" stroke-width="1"/>
  <text x="216" y="340" font-family="'Inter', sans-serif" font-size="12" font-weight="600" fill="#c7c8ff">Extensions</text>
  <g font-family="'SF Mono', monospace" font-size="10">
    <circle cx="224" cy="360" r="3" fill="#22c55e"/><text x="234" y="364" fill="#a0a0a0">product-team</text><text x="380" y="364" fill="#555">35 tools</text>
    <circle cx="224" cy="380" r="3" fill="#22c55e"/><text x="234" y="384" fill="#a0a0a0">quality-gate</text><text x="380" y="384" fill="#555">8 tools</text>
    <circle cx="224" cy="400" r="3" fill="#22c55e"/><text x="234" y="404" fill="#a0a0a0">model-router</text><text x="380" y="404" fill="#555">hook</text>
    <circle cx="224" cy="420" r="3" fill="#22c55e"/><text x="234" y="424" fill="#a0a0a0">telegram-notifier</text><text x="380" y="424" fill="#555">notif</text>
  </g>

  <rect x="490" y="316" width="275" height="120" rx="8" fill="url(#card)" stroke="#333" stroke-width="1"/>
  <text x="506" y="340" font-family="'Inter', sans-serif" font-size="12" font-weight="600" fill="#c7c8ff">Recent Activity</text>
  <g font-family="'SF Mono', monospace" font-size="10">
    <text x="506" y="360" fill="#3b82f6">back-1</text><text x="556" y="360" fill="#a0a0a0"> impl → review</text><text x="720" y="360" fill="#555">2m ago</text>
    <text x="506" y="380" fill="#f59e0b">pm</text><text x="536" y="380" fill="#a0a0a0"> created VF-043</text><text x="720" y="380" fill="#555">5m ago</text>
    <text x="506" y="400" fill="#22c55e">tech-lead</text><text x="580" y="400" fill="#a0a0a0"> approved PR #42</text><text x="720" y="400" fill="#555">8m ago</text>
    <text x="506" y="420" fill="#a855f7">devops</text><text x="560" y="420" fill="#a0a0a0"> CI passed</text><text x="720" y="420" fill="#555">12m ago</text>
  </g>

  <!-- Footer bar -->
  <rect y="456" width="800" height="44" rx="0" fill="#1a1a30"/>
  <rect y="456" width="800" height="1" fill="#333"/>
  <text x="200" y="482" font-family="'Inter', sans-serif" font-size="10" fill="#555">v0.1.0  ·  8 agents  ·  5 extensions  ·  14 skills  ·  35+ tools  ·  MIT License</text>
</svg>
