<svg xmlns="http://www.w3.org/2000/svg" width="800" height="500" viewBox="0 0 800 500">
  <defs>
    <linearGradient id="cbg" x1="0" y1="0" x2="0" y2="1">
      <stop offset="0%" stop-color="#1e1e2e"/>
      <stop offset="100%" stop-color="#181825"/>
    </linearGradient>
  </defs>

  <!-- Window chrome -->
  <rect width="800" height="500" rx="12" fill="url(#cbg)"/>
  <rect width="800" height="36" rx="12" fill="#313244"/>
  <rect y="24" width="800" height="12" fill="#313244"/>
  <circle cx="20" cy="18" r="6" fill="#ff5f57"/>
  <circle cx="40" cy="18" r="6" fill="#febc2e"/>
  <circle cx="60" cy="18" r="6" fill="#28c840"/>
  <text x="400" y="22" font-family="monospace" font-size="13" fill="rgba(255,255,255,0.5)" text-anchor="middle">OpenClaw Session · vibe-flow</text>

  <g font-family="'SF Pro', -apple-system, system-ui, sans-serif" font-size="13">
    <!-- Message 1: User -->
    <rect x="200" y="52" width="580" height="36" rx="12" fill="#45475a"/>
    <text x="216" y="74" fill="#cdd6f4" font-size="13">Create a new REST endpoint for user notifications</text>

    <!-- Agent badge: tech-lead -->
    <rect x="20" y="104" width="80" height="22" rx="11" fill="rgba(99,102,241,0.2)" stroke="rgba(99,102,241,0.4)" stroke-width="1"/>
    <text x="60" y="119" fill="#a5b4fc" font-size="11" text-anchor="middle">tech-lead</text>
    <rect x="20" y="132" width="560" height="60" rx="12" fill="#1e293b"/>
    <text x="36" y="152" fill="#94a3b8" font-size="12">Task T-042 created · Analyzing requirements...</text>
    <text x="36" y="170" fill="#64748b" font-size="11">Pipeline: requirements → design → implementation → review → merge</text>
    <text x="36" y="186" fill="#22c55e" font-size="11">▶ Stage: requirements  ·  Assigned to: pm</text>

    <!-- Agent badge: pm -->
    <rect x="20" y="208" width="80" height="22" rx="11" fill="rgba(34,197,94,0.2)" stroke="rgba(34,197,94,0.4)" stroke-width="1"/>
    <text x="60" y="223" fill="#86efac" font-size="11" text-anchor="middle">pm</text>
    <rect x="20" y="236" width="560" height="44" rx="12" fill="#1e293b"/>
    <text x="36" y="256" fill="#94a3b8" font-size="12">Requirements groomed · 3 acceptance criteria defined</text>
    <text x="36" y="272" fill="#22c55e" font-size="11">✓ Stage complete · Advancing → design</text>

    <!-- Agent badge: back-1 -->
    <rect x="20" y="296" width="80" height="22" rx="11" fill="rgba(251,191,36,0.2)" stroke="rgba(251,191,36,0.4)" stroke-width="1"/>
    <text x="60" y="311" fill="#fde68a" font-size="11" text-anchor="middle">back-1</text>
    <rect x="20" y="324" width="560" height="60" rx="12" fill="#1e293b"/>
    <text x="36" y="344" fill="#94a3b8" font-size="12">Implementation started · TDD: 4 tests written first</text>
    <text x="36" y="362" fill="#94a3b8" font-size="12">src/notifications/controller.ts · src/notifications/service.ts</text>
    <text x="36" y="378" fill="#fbbf24" font-size="11">⟳ Stage: implementation  ·  Tests: 4/4 passing</text>

    <!-- Agent badge: qa -->
    <rect x="20" y="400" width="80" height="22" rx="11" fill="rgba(168,85,247,0.2)" stroke="rgba(168,85,247,0.4)" stroke-width="1"/>
    <text x="60" y="415" fill="#d8b4fe" font-size="11" text-anchor="middle">qa</text>
    <rect x="20" y="428" width="560" height="44" rx="12" fill="#1e293b"/>
    <text x="36" y="448" fill="#94a3b8" font-size="12">Quality gate: coverage 91% · lint 0 errors · complexity 3.1</text>
    <text x="36" y="464" fill="#22c55e" font-size="11">✓ All checks passed · PR #127 ready for merge</text>
  </g>

  <!-- Pipeline progress bar -->
  <rect x="600" y="104" width="180" height="380" rx="10" fill="rgba(255,255,255,0.03)" stroke="rgba(255,255,255,0.06)" stroke-width="1"/>
  <text x="690" y="126" fill="#6366f1" font-size="11" text-anchor="middle" font-family="monospace">Pipeline T-042</text>

  <circle cx="630" cy="150" r="6" fill="#22c55e"/><text x="646" y="154" fill="#22c55e" font-size="10" font-family="monospace">requirements</text>
  <line x1="630" y1="156" x2="630" y2="170" stroke="#22c55e" stroke-width="1"/>
  <circle cx="630" cy="178" r="6" fill="#22c55e"/><text x="646" y="182" fill="#22c55e" font-size="10" font-family="monospace">design</text>
  <line x1="630" y1="184" x2="630" y2="198" stroke="#22c55e" stroke-width="1"/>
  <circle cx="630" cy="206" r="6" fill="#22c55e"/><text x="646" y="210" fill="#22c55e" font-size="10" font-family="monospace">implement</text>
  <line x1="630" y1="212" x2="630" y2="226" stroke="#22c55e" stroke-width="1"/>
  <circle cx="630" cy="234" r="6" fill="#22c55e"/><text x="646" y="238" fill="#22c55e" font-size="10" font-family="monospace">test</text>
  <line x1="630" y1="240" x2="630" y2="254" stroke="#22c55e" stroke-width="1"/>
  <circle cx="630" cy="262" r="6" fill="#22c55e"/><text x="646" y="266" fill="#22c55e" font-size="10" font-family="monospace">review</text>
  <line x1="630" y1="268" x2="630" y2="282" stroke="#fbbf24" stroke-width="1" stroke-dasharray="3,3"/>
  <circle cx="630" cy="290" r="6" fill="none" stroke="#fbbf24" stroke-width="1.5"/><text x="646" y="294" fill="#fbbf24" font-size="10" font-family="monospace">merge</text>
  <line x1="630" y1="296" x2="630" y2="310" stroke="#555" stroke-width="1" stroke-dasharray="3,3"/>
  <circle cx="630" cy="318" r="6" fill="none" stroke="#555" stroke-width="1"/><text x="646" y="322" fill="#555" font-size="10" font-family="monospace">deploy</text>
  <line x1="630" y1="324" x2="630" y2="338" stroke="#555" stroke-width="1" stroke-dasharray="3,3"/>
  <circle cx="630" cy="346" r="6" fill="none" stroke="#555" stroke-width="1"/><text x="646" y="350" fill="#555" font-size="10" font-family="monospace">validate</text>
  <line x1="630" y1="352" x2="630" y2="366" stroke="#555" stroke-width="1" stroke-dasharray="3,3"/>
  <circle cx="630" cy="374" r="6" fill="none" stroke="#555" stroke-width="1"/><text x="646" y="378" fill="#555" font-size="10" font-family="monospace">close</text>

  <!-- Progress label -->
  <text x="690" y="420" fill="rgba(255,255,255,0.3)" font-size="10" text-anchor="middle" font-family="monospace">6/10 stages</text>
  <rect x="624" y="432" width="132" height="4" rx="2" fill="#333"/>
  <rect x="624" y="432" width="79" height="4" rx="2" fill="#6366f1"/>
</svg>
